<?xml version="1.0" standalone="no"?>
<!DOCTYPE svg PUBLIC "-//W3C//DTD SVG 20010904//EN"
 "http://www.w3.org/TR/2001/REC-SVG-20010904/DTD/svg10.dtd">
<svg version="1.0" xmlns="http://www.w3.org/2000/svg"
 width="1024.000000pt" height="1024.000000pt" viewBox="0 0 1024.000000 1024.000000"
 preserveAspectRatio="xMidYMid meet">

<g transform="translate(0.000000,1024.000000) scale(0.100000,-0.100000)"
fill="#000000" stroke="none">
<path d="M898 5115 l2 -4135 4220 0 4220 0 0 4135 0 4135 -4222 0 -4223 0 3
-4135z m8252 3 l0 -3948 -4030 0 -4030 0 0 3948 0 3947 4030 0 4030 0 0 -3947z"/>
<path d="M3000 6190 c-315 -51 -495 -313 -403 -586 32 -97 111 -184 220 -242
32 -16 111 -49 177 -71 203 -70 274 -118 296 -201 30 -110 -58 -208 -200 -225
-101 -12 -228 35 -304 111 l-44 43 -110 -82 c-70 -52 -111 -89 -112 -100 0
-30 100 -119 187 -165 110 -58 211 -82 348 -84 121 -2 187 13 285 62 128 65
204 149 247 271 22 65 24 83 18 158 -8 116 -46 194 -133 279 -77 75 -164 119
-358 181 -101 32 -141 50 -174 78 -121 104 -79 257 83 305 82 25 256 -28 312
-94 l26 -30 107 107 106 107 -29 25 c-54 44 -165 104 -237 129 -81 27 -221 38
-308 24z"/>
<path d="M2090 6183 c-1 -5 0 -188 2 -408 3 -541 0 -731 -12 -786 -36 -149
-266 -179 -348 -45 -15 25 -30 46 -34 46 -3 0 -54 -23 -112 -51 l-106 -51 15
-34 c89 -212 350 -321 599 -248 135 39 229 145 270 304 22 82 25 160 30 778
l4 502 -154 0 c-85 0 -154 -3 -154 -7z"/>
<path d="M4770 5403 l0 -788 150 0 150 0 0 333 c0 367 1 376 63 440 100 104
246 92 303 -25 16 -34 19 -78 25 -382 5 -190 6 -348 3 -353 -3 -4 63 -8 146
-8 l152 0 -5 383 c-4 321 -7 392 -22 442 -36 128 -94 197 -205 245 -45 20 -72
24 -150 25 -111 0 -152 -15 -242 -88 -31 -26 -59 -47 -62 -47 -3 0 -6 137 -6
305 l0 305 -150 0 -150 0 0 -787z"/>
<path d="M8390 5587 c0 -332 -3 -686 -7 -785 l-6 -182 149 0 149 0 2 628 c1
345 5 698 9 785 l6 157 -151 0 -151 0 0 -603z"/>
<path d="M4113 5706 c-239 -61 -397 -258 -410 -512 -10 -191 30 -314 143 -433
180 -191 479 -231 700 -94 70 43 124 87 124 101 0 6 -39 45 -87 89 l-88 79
-54 -32 c-134 -82 -282 -67 -375 37 -59 64 -80 121 -80 209 1 129 58 225 166
279 93 47 186 38 291 -29 l48 -30 59 51 c33 29 72 67 86 86 l26 35 -32 33
c-35 36 -133 92 -210 120 -61 22 -239 29 -307 11z"/>
<path d="M6302 5705 c-103 -23 -202 -78 -270 -149 -105 -109 -152 -233 -152
-406 0 -162 40 -271 141 -383 70 -77 132 -118 237 -154 66 -23 93 -27 192 -26
129 0 199 20 306 84 114 69 220 220 244 348 15 80 12 229 -5 296 -45 172 -172
310 -343 372 -86 31 -255 40 -350 18z m219 -260 c119 -42 198 -144 207 -266 7
-103 -17 -169 -86 -239 -84 -83 -167 -106 -280 -78 -130 32 -202 133 -202 283
0 114 36 192 116 254 79 60 160 75 245 46z"/>
<path d="M7550 5704 c-75 -16 -188 -69 -242 -114 -53 -44 -134 -170 -159 -248
-44 -140 -34 -324 25 -440 90 -178 236 -280 445 -313 262 -40 543 146 607 404
68 271 -47 553 -270 662 -132 65 -262 80 -406 49z m265 -275 c53 -25 100 -76
129 -138 15 -35 20 -67 21 -136 0 -81 -3 -95 -30 -144 -122 -221 -403 -211
-509 18 -31 68 -29 198 4 265 30 62 81 113 139 139 88 39 156 38 246 -4z"/>
</g>
</svg>
